<svg xmlns="http://www.w3.org/2000/svg" viewBox="0 0 776.85 775.35"><g id="Layer_2" data-name="Layer 2"><g id="Layer_1-2" data-name="Layer 1"><path d="M382.42,608.78c-5.16,5.81-9.57,11.46-14.68,16.38-6.34,6.09-12.85,12.16-20,17.2a41.54,41.54,0,0,0-17.43,26.33c-2.92,13.44-6.67,26.75-5.42,40.72.3,3.32,1.09,6.59,1.8,10.71-15.9-21.29-42.57-82.37-25.92-136-3.43,2.19-7.23,4-10.21,6.67-8.39,7.57-13,17.57-16.68,28-3.81,10.85-7.74,21.6-14.57,31-13,17.92-31.32,28-51.83,34.61-18.08,5.85-36.74,8.86-55.56,11a17.09,17.09,0,0,1-3.22-.55c2.23-1.25,3.37-1.92,4.53-2.53,26.16-13.57,48.31-31.32,61-58.86,6.66-14.49,8.26-29.74,5.79-45.35-2-12.48-3-24.83,2.06-36.79,1.7-4.07,4.31-7.76,6.62-11.82-5.86,1.2-11.6,2.3-17.3,3.55a51.85,51.85,0,0,1-31.23-3.24c-11.08-4.62-20.1-1.35-29.09,4.3-14.51,9.12-26.69,20.94-38.17,33.54a11.78,11.78,0,0,1-4.16,3.08c12-48.51,38.77-87.31,78.66-119.34-3.7-1-6.17-2.14-8.72-2.36-9.56-.81-18.41,2.06-27,5.85-9.73,4.3-19.25,9.17-29.22,12.81-19.9,7.26-39.58,4.6-58.82-3C40.24,465.34,20.1,450.91.84,435.13c-.3-.26-.38-.8-.84-1.82,6.11,1.42,11.67,2.92,17.3,4,25.12,4.83,50.16,6,74.9-2.22,17.22-5.71,30.89-16,40.65-31.4,5.52-8.68,12.36-15.7,22.75-18.28,2.63-.65,5.32-1.08,8.13-2.8-2-.88-4-1.69-6-2.64a30.09,30.09,0,0,1-16.18-19.39c-6.6-23.22-23.64-32.9-45.71-36.64-13.24-2.25-26.18-.69-39,2.61a3.84,3.84,0,0,1-2.56-.17c19.77-13.74,41.71-22.7,65-28,23.44-5.34,47.16-6.33,72.15.66-1-3.45-1.31-6.55-2.78-8.92-5.29-8.51-14-12.59-22.84-16.14a153.38,153.38,0,0,0-15.67-5c-18.63-5.24-31.79-17.59-42.6-32.87-14.92-21.09-23.18-44.77-26.59-70.23-.77-5.79-1-11.66-1.45-17.5l1.66-.49c.94,1.59,1.93,3.16,2.83,4.77,11.64,20.7,25.85,39.19,45.66,52.81,13.13,9,27.64,13.28,43.65,13.45,18.05.19,36.29-.3,53.68,6,3.83,1.39,7.49,3.27,11.81,5.19-.72-4.87-1.21-9.11-2-13.29-2.27-11.88-.5-23.47,1.95-35.12,5.1-24.23-3.55-53.66-30.28-66.64-3.53-1.72-6.89-3.79-10.83-6,7.44-1.52,44.41,13.77,64.57,27.73,19.57,13.57,36.42,29.82,50,49.54l1.5-.31c.75-2.58,1.93-5.11,2.19-7.74,1.18-11.64-1.86-22.55-7.16-32.7C297.27,123.83,293.88,101,299.14,77c3.81-17.41,11.19-33.46,21-48.28,6-9,12.73-17.48,19.16-26.17A25,25,0,0,1,342.17,0c-1.55,5.43-2.65,9.49-3.87,13.52-5.92,19.54-7.61,39.67-4.14,59.56,3.95,22.71,14.95,42.15,33.39,56.83A176.32,176.32,0,0,1,381.46,142c7.75,7.6,10.12,12,14,23.72a28.15,28.15,0,0,0,2.31-2.53c10.8-15.47,23.85-28,42.08-34.65,9.63-3.49,12.73-12.15,14-21.38,2.27-16.45.72-32.74-2.65-48.92a10.34,10.34,0,0,1,.23-4.82C465,73.68,473.65,96,478.54,119.58s5,47.28-1.34,70.85l1.5,1.21c3.83-2.54,8.06-4.63,11.41-7.7A50.23,50.23,0,0,0,505.65,156c3.5-18.69,14.27-32,28.92-42.71,23.32-17,49.15-28.48,77.79-33,4.83-.76,9.88-.1,15.28.66-1.86,1.06-3.69,2.19-5.59,3.17C599,96,580.1,112.32,568.12,135.72c-7,13.78-11.12,28.43-11.24,44,0,3,.83,5.91.89,8.87.3,16.17-.09,32.25-9.3,47.34,4.16-.5,7.59-.62,10.89-1.34,14.1-3.09,27.58-3.17,40.17,5.54,6.17,4.27,12.36.6,17.86-2.29,16.88-8.87,30.43-21.94,43.36-35.7,2-2.17,4-4.45,6.76-7.56,1.07,7.29-.94,13.2-2.59,19-11.55,40.85-36.11,72.18-70.7,96.11-1,.72-2,1.54-3.45,2.65,7.36,3,14.4,3,21.48,2,13.19-1.77,25.32-6.59,37.19-12.47a81.09,81.09,0,0,1,18.61-6.83c12.8-2.75,25.48-.46,37.72,3.47,25.4,8.16,47.84,21.58,67.61,39.47,1.17,1.07,2.15,2.36,3.47,3.81-9.21-2.62-17.78-5.67-26.6-7.45-23.47-4.75-46.6-4.2-68.73,6.3a100,100,0,0,0-35.46,27.84c-9.35,11.62-19.49,21.89-34.32,25.4,5.2,3.64,10.84,6.81,15.49,11.06a37.6,37.6,0,0,1,8.68,12c8.71,19.35,23.72,30.4,44.08,34.68,12.94,2.72,25.73,1.36,38.35-2.26a3.89,3.89,0,0,1,3,.14C679,475,633.9,487.58,584,477.56l-.78,1.48c2.51,2.64,4.6,6,7.59,7.8,10.76,6.61,21.81,12.73,32.76,19,34.66,19.89,58.4,48.34,68.6,87.42,3.1,11.86,3.12,23.85,1.1,36.26L691.08,625c-11.71-24.52-28.19-44.77-52.5-57.75-13.11-7-27.14-11-42.17-10.26-9.92.47-19.82,1.36-29.74,1.94-8.47.5-15.94-2.53-23-6.86-1.33-.81-2.71-1.53-4.8-2.71.42,3.27.62,5.52,1,7.74,2.3,13-1.22,25.65-2.57,38.43-2.75,26,6.31,47.29,26.47,63.77,2.76,2.26,6.47,3.35,9.76,4.94,1.7.83,3.44,1.57,5.91,2.68-7.47,1.87-22.87-2.48-45.43-13.35-14.3-6.88-27.6-15.7-38.69-27.11s-21-23.48-31.3-35.13c-2,2.6-3.11,10-2,14.88,4.11,18.76,11.19,36.43,18.52,54.12,6.26,15.09,5.53,30.79.49,46.34-6.53,20.16-17.89,37.46-31.29,53.55a121.28,121.28,0,0,1-15,15.18c2.19-8.91,4.85-17.73,6.49-26.73,4.72-26,4.64-51.67-8.23-75.89A80.07,80.07,0,0,0,408.31,645C395.6,635.92,386.07,623,382.42,608.78ZM388.85,184c-54.54-.07-108.49,19.64-151.77,68.14C195.4,298.81,179.58,354.56,188,416.55c11.86,87.8,88.24,170.24,195,173.13C503.68,593,592.14,495.56,591.4,386.82,590.63,272.87,501.35,184,388.85,184Z"/><path d="M451.78,317.86c6.42-8.19,7.33-18,2-26.81-8.64-14.37-22-23.86-35.36-33.27-.85-.6-2.94-.33-4,.31-18.25,11.3-36.41,22.76-54.63,34.11-2.8,1.75-2.25,3.32-.61,5.63,35.47,49.72,70.72,99.59,106.44,149.12,5.75,8,8.57,15.75,8.12,25.63-.73,16-.26,32-.14,48,0,3-.82,4.67-3.73,6.1Q428.48,547,387.25,567.72c-2.9,1.45-5.08,1.73-7.56-.71-22.31-22-44.93-43.6-66.82-65.95-4.38-4.48-7.34-11.3-8.73-17.53-2.57-11.44,4-20.2,16.6-24.74.13.15.25.31.37.47-7.59,9.94-6.19,19.61.7,29.26,9.78,13.7,23.37,23.08,36.92,32.47.9.63,2.9.37,4-.18,17.22-8.36,34.36-16.88,51.58-25.23,3.75-1.82,2.65-3.72.9-6.23q-24-34.14-47.81-68.35-30.78-44-61.54-88a12,12,0,0,1-2.07-6.38c-.16-19.5-.19-39,.05-58.5a8.3,8.3,0,0,1,3.16-5.89c27.39-18.34,54.92-36.47,82.42-54.63a10.42,10.42,0,0,1,1.51-.65c5,4.63,10.08,9.15,15,13.89,17.8,17.31,35.69,34.53,53.19,52.13,6,6.05,10.26,13.39,10.82,22.45.6,9.55-5.5,19-18,22.63Z"/><path d="M320.74,458.79,322,458l.34.56-1.26.71C321,459.1,320.87,458.94,320.74,458.79Z"/><path d="M452,318l-.54.58.36-.76Z"/></g></g></svg>